<svg width="150" height="150" viewBox="0 0 150 150" fill="none" xmlns="http://www.w3.org/2000/svg">
<path d="M138.169 78.6959L17.3127 96.3199L24.2727 76.3843L12 59.8876L132.856 42.2642L125.891 62.1697L138.169 78.6959Z" fill="#FFED00"/>
<path d="M35.0996 115.903C35.0996 113.589 35.2443 102.77 35.3021 100.455C35.4468 100.05 36.17 100.108 36.5171 100.108C39.5257 100.108 41.6953 102.77 41.6953 105.662C41.6953 108.787 39.5546 112.287 36.6907 113.618C36.6618 114.081 36.546 116.337 36.546 116.8C36.5171 117.783 36.5171 122.238 36.546 123.193C36.3725 123.482 35.9385 123.569 35.6493 123.569C35.3889 123.569 35.331 123.54 35.0996 123.396V115.903ZM36.6328 111.68C36.8353 111.68 37.0957 111.622 37.2403 111.477C38.9182 109.944 39.9018 108.179 39.9018 105.865C39.9018 104.361 38.8314 101.641 36.8353 101.641L36.6328 111.68Z" fill="white" stroke="white" stroke-width="0.535714" stroke-miterlimit="10"/>
<path d="M44.6172 120.474C44.6172 113.965 44.8486 107.399 45.0222 100.889C45.08 99.5584 45.5718 99.5583 46.729 99.5583H47.0183C49.6797 99.5583 51.3865 101.294 51.3865 103.84V104.158C51.3865 106.27 50.8368 108.729 48.9275 110.03C49.0722 110.175 49.7375 110.956 49.8533 111.159C51.155 112.865 50.8368 117.002 50.9815 118.998C50.9815 119.172 51.155 120.503 51.155 120.676V120.908C51.155 121.399 50.6922 121.457 50.3161 121.457H50.2872C49.969 121.457 49.5929 121.457 49.4772 121.052C49.4483 120.098 49.1879 115.672 49.13 114.688C49.0143 113.27 48.725 111.332 46.9604 111.332H46.4975C46.4397 111.593 46.324 112.75 46.324 113.01C46.295 113.27 46.1504 119.693 46.1215 122.152C46.1215 122.701 46.2083 123.309 45.485 123.309C45.1668 123.309 44.8197 123.193 44.6172 122.904V120.474V120.474ZM46.8736 109.278C48.9275 109.278 49.7086 105.489 49.7086 104.158C49.7086 102.798 49.0722 101.063 47.4233 101.063C46.9893 101.063 46.7 101.323 46.7 101.815C46.729 104.332 46.4975 106.443 46.4975 109.018C46.4975 109.249 46.7 109.278 46.8736 109.278Z" fill="white" stroke="white" stroke-width="0.535714" stroke-miterlimit="10"/>
<path d="M59.66 99.6741C64.8382 100.253 64.0861 112.576 63.7968 116.424C63.5943 118.536 62.5239 122.21 59.6311 122.21C54.5102 122.21 54.2793 113.473 54.2793 110.089C54.2793 106.414 54.5397 99.6741 59.66 99.6741ZM55.9288 109.973C55.9288 118.449 57.4909 120.763 59.5448 120.763C62.3798 120.763 62.4088 113.415 62.4088 111.593V111.477C62.4088 109.249 61.8013 101.149 59.053 101.149C56.8834 101.149 55.9577 105.981 55.9577 107.427C55.9288 108.353 55.9288 109.163 55.9288 109.973Z" fill="white" stroke="white" stroke-width="0.535714" stroke-miterlimit="10"/>
<path d="M73.0825 102.567C73.0825 104.071 72.5039 105.431 71.5204 106.53C74.8177 108.584 76.12 111.043 76.12 114.92C76.12 119.056 73.8341 122.586 69.2934 122.586C69.0909 122.586 68.5123 122.557 68.2809 122.152C67.9627 117.697 67.9627 113.27 67.5288 108.034L66.9502 101.149V100.541C68.8306 98.4013 73.0825 99.0088 73.0825 102.567ZM69.0614 105.952C70.5368 105.952 71.5204 104.274 71.5204 102.683C71.5204 101.034 70.1613 100.455 68.6281 101.178L69.0614 105.952ZM70.3343 120.85C73.4007 120.85 74.4127 117.697 74.4127 114.92C74.4127 111.709 72.9373 107.804 69.1482 107.804C69.1482 112.172 69.4664 116.482 69.8136 120.821C69.9877 120.85 70.1613 120.85 70.3343 120.85Z" fill="white" stroke="white" stroke-width="0.535714" stroke-miterlimit="10"/>
<path d="M79.3605 122.76C79.3316 122.76 78.9845 107.833 78.9845 105.865C78.9845 105.315 78.6373 100.889 78.6084 100.34V100.137C78.6084 99.9057 78.6084 99.8189 78.8109 99.6164C78.8977 99.5875 79.2454 99.5586 79.3605 99.5586C79.8813 99.5586 80.1127 99.5296 80.2862 100.166C80.5466 101.294 80.4314 101.989 80.4598 103.117C80.605 109.018 80.6623 115.006 81.0095 120.966H81.212C82.427 120.966 83.5841 120.561 84.828 120.561C85.2909 120.561 85.8116 120.676 85.8116 121.255C85.8116 121.573 85.638 121.834 85.233 121.891L79.3605 122.76Z" fill="white" stroke="white" stroke-width="0.535714" stroke-miterlimit="10"/>
<path d="M88.1553 101.93C88.1553 101.41 88.6471 100.918 89.1678 100.918H93.7385C93.9121 100.918 94.4906 101.352 94.5196 101.497C94.5485 101.554 94.5485 101.583 94.5485 101.641C94.5485 102.22 93.7674 102.48 93.3046 102.48H89.8337L89.9783 112.084L93.1026 111.622H93.2478C94.6074 111.622 94.0862 112.952 92.9296 113.126L90.0367 113.56L89.9499 121.11C90.2103 121.139 91.1938 121.139 91.4542 121.139C93.3924 121.139 94.8104 120.474 94.8972 121.804C94.9546 122.788 88.4751 122.672 88.4751 122.123L88.1553 101.93Z" fill="white" stroke="white" stroke-width="0.535714" stroke-miterlimit="10"/>
<path d="M98.9746 101.93C98.9746 101.41 99.4664 100.918 99.9871 100.918H104.558C104.731 100.918 105.31 101.352 105.339 101.497C105.368 101.554 105.368 101.583 105.368 101.641C105.368 102.22 104.587 102.48 104.124 102.48H100.653L100.798 112.084L103.922 111.622H104.067C105.427 111.622 104.906 112.952 103.749 113.126L100.856 113.56L100.769 121.11C101.03 121.139 102.013 121.139 102.274 121.139C104.212 121.139 105.63 120.474 105.717 121.804C105.774 122.788 99.2944 122.672 99.2944 122.123L98.9746 101.93Z" fill="white" stroke="white" stroke-width="0.535714" stroke-miterlimit="10"/>
<path d="M119.225 104.592L116.101 112.287C116.043 112.866 114.683 112.923 114.452 112.663C114.423 112.634 114.278 112.403 114.249 112.316C113.497 109.886 112.832 107.485 111.876 105.113C111.385 110.551 111.993 116.106 111.298 121.516C110.98 121.718 110.749 121.718 110.401 121.718C109.794 121.718 109.822 121.574 109.822 121.024C109.822 120.098 110.083 119.491 110.025 101.236C110.025 100.368 111.356 99.7031 111.703 100.658L115.233 110.32C116.072 109.366 118.588 101.236 119.225 100.166C119.514 99.5874 120.151 99.6742 120.874 100.166C120.903 100.166 121.047 109.712 121.076 113.792C121.105 116.366 121.25 119.057 121.25 121.66C121.25 122.181 120.903 122.644 120.352 122.644C119.89 122.644 119.774 122.528 119.601 122.065C119.688 116.222 119.514 110.407 119.225 104.592Z" fill="white" stroke="white" stroke-width="0.535714" stroke-miterlimit="10"/>
<path d="M26.7394 39.2353C26.201 35.66 25.527 28.272 30.2944 27.2905L30.5188 27.2278C31.6347 27.0596 33.8022 27.4646 33.9662 28.5516C33.9828 28.6662 33.972 28.7852 33.9362 28.9362C33.5703 30.3955 32.2963 28.5393 30.6024 28.5607L30.4594 28.5821C27.8794 29.3214 27.4647 32.982 28.1842 37.7595L28.279 38.3889L28.8056 41.4987C29.209 43.3978 30.4942 47.8561 33.0694 47.4682L33.1835 47.4511C35.0542 47.0525 34.759 43.1477 34.6428 41.7902C34.6101 40.8002 34.6031 39.7775 34.3862 38.7275C34.0294 36.9382 31.1467 39.3618 30.8328 37.858C30.7331 37.2002 31.5131 36.9366 31.9995 36.8632L32.5101 36.7571C33.192 36.6253 35.644 36.1973 35.8203 37.3705L35.9022 37.9143C36.0067 38.8057 36.2563 42.0152 36.2687 42.4812C36.3903 45.0377 36.296 48.2991 33.2563 48.9028L33.0276 48.9371C28.6508 49.5961 27.2895 42.6923 26.7999 39.6355L26.7394 39.2353Z" fill="white" stroke="white" stroke-width="0.535714" stroke-miterlimit="10"/>
<path d="M37.3366 28.015C37.2589 27.5001 37.6719 26.9403 38.1868 26.8632L42.7071 26.1823C42.8785 26.1566 43.5155 26.4994 43.5659 26.6382C43.6028 26.6912 43.6071 26.7196 43.6157 26.7769C43.7019 27.3491 42.9685 27.723 42.511 27.7921L39.0782 28.3091L40.6516 37.7848L43.6725 36.8617L43.816 36.8403C45.1607 36.6378 44.8435 38.0312 43.725 38.3751L40.9291 39.235L41.9673 46.7141C42.2287 46.7039 43.2016 46.5576 43.4587 46.5185C45.3755 46.2298 46.6784 45.3608 46.9623 46.6637C47.1659 47.628 40.7405 48.4782 40.6585 47.935L37.3366 28.015Z" fill="white" stroke="white" stroke-width="0.535714" stroke-miterlimit="10"/>
<path d="M46.8913 26.5765C46.8136 26.0617 47.2266 25.5018 47.7414 25.4247L52.2618 24.7438C52.4332 24.7181 53.0702 25.0609 53.1205 25.1997C53.1575 25.2527 53.1618 25.2811 53.1709 25.3384C53.2566 25.9106 52.5232 26.2845 52.0657 26.3536L48.6329 26.8706L50.2063 36.3463L53.2272 35.4233L53.3707 35.4018C54.7154 35.1993 54.3982 36.5927 53.2802 36.9367L50.4838 37.7965L51.522 45.2756C51.7834 45.2654 52.7563 45.1192 53.0134 45.0801C54.9302 44.7913 56.233 43.9224 56.517 45.2252C56.7205 46.1895 50.2952 47.0397 50.2132 46.4965L46.8913 26.5765Z" fill="white" stroke="white" stroke-width="0.535714" stroke-miterlimit="10"/>
<path d="M56.7633 24.9142C56.5335 23.7785 58.003 22.8549 58.8537 24.4235L67.0721 39.364C66.9103 38.1013 66.0794 31.0294 65.8298 28.1997C65.6573 26.4705 65.2801 24.7433 65.4108 23.0853C65.3632 22.7708 65.6782 22.7231 66.1073 22.6588C66.7983 22.5838 66.8594 22.6037 66.9253 23.238C67.288 26.2256 67.3067 29.2653 67.6399 32.2578C67.8328 33.9255 68.7398 41.8926 68.99 43.5522C68.8801 44.1828 67.9416 43.9733 67.6394 43.5212C67.2628 42.9635 66.9478 42.4262 58.4412 27.1192L60.8851 44.7137C61.0142 45.5719 59.5426 45.7058 59.4521 45.1047L56.7633 24.9142Z" fill="white" stroke="white" stroke-width="0.535714" stroke-miterlimit="10"/>
<path d="M26.8047 66.3184C26.914 66.1111 27.6029 65.7222 27.814 65.8813C27.9125 65.9145 28.2774 66.169 28.3149 66.259L32.4083 80.3301C32.5229 75.9506 32.5159 70.4445 32.6075 66.0688C32.4886 65.2759 32.7913 65.1115 33.2022 65.0499C33.545 64.9984 33.7802 65.0113 34.0031 65.4067C33.597 69.4009 33.6265 73.4965 33.574 77.509L33.5804 83.6343C33.4829 84.0779 33.2579 84.1358 32.9386 84.1834C32.6874 84.2209 32.4361 84.259 32.2995 83.9692C30.2156 78.3227 28.7922 72.0999 26.8047 66.3184Z" fill="black"/>
<path d="M38.7984 81.828C38.0125 76.5823 37.4029 71.2626 36.7541 65.996C36.6389 64.9166 37.0273 64.8582 37.9407 64.7216L38.17 64.6873C40.2716 64.3728 41.8289 65.5696 42.1364 67.6214L42.1745 67.878C42.4295 69.5805 42.2923 71.6269 40.9412 72.9019C41.073 73.001 41.6928 73.5518 41.8086 73.7018C43.0428 74.9232 43.2914 78.295 43.6461 79.886C43.667 80.0264 43.9654 81.078 43.9862 81.2178L44.0141 81.4043C44.0736 81.8007 43.7146 81.9019 43.4179 81.9464L43.3954 81.9496C43.1436 81.9871 42.8473 82.0321 42.707 81.7193C42.5687 80.9532 41.8284 77.4169 41.6645 76.631C41.402 75.5023 40.9391 73.9744 39.5457 74.1828L39.1804 74.2375C39.1659 74.4544 39.2141 75.401 39.2457 75.6105C39.2543 75.8237 39.9154 81.0169 40.1896 83.0018C40.2561 83.4448 40.398 83.9243 39.8264 84.01C39.5752 84.0475 39.2875 83.9955 39.0925 83.786L38.7984 81.828ZM39.2286 72.5382C40.8507 72.2955 41.0103 69.1487 40.8491 68.0762C40.6852 66.9807 39.9727 65.6569 38.6709 65.8525C38.328 65.9039 38.1309 66.1476 38.1909 66.5441C38.5171 68.5691 38.5895 70.2984 38.9002 72.3732C38.928 72.5596 39.0914 72.5591 39.2286 72.5382Z" fill="black"/>
<path d="M44.6982 64.9257C44.7882 64.435 44.8991 64.3948 45.3791 64.3231C46.0413 64.2239 46.0868 64.5272 46.1886 65.2032C46.1993 65.2729 46.2218 65.5798 46.2282 65.6264L47.9323 81.6759C48.04 82.7088 46.7752 82.9938 46.6734 82.3177L44.6982 64.9257Z" fill="black"/>
<path d="M49.8247 80.4383L49.9393 80.4212C50.8602 80.3312 50.3845 81.213 51.1613 81.0962C53.332 80.771 50.8897 66.8103 50.8661 65.4073C50.8441 64.481 50.5377 64.1457 51.2036 63.76L51.2952 63.7466C52.1245 63.6694 52.2557 64.0792 52.387 64.7982L52.7716 69.0791C53.7241 78.4 53.9491 81.775 51.2309 82.1816L51.0477 82.2089C50.3325 82.2683 49.4138 81.9057 49.2815 81.0196C49.2482 80.6441 49.4818 80.4898 49.8247 80.4383Z" fill="black"/>
<path d="M61.3906 79.683C61.3938 79.7066 61.3745 79.7333 61.3783 79.7564C61.322 80.313 61.3124 80.7196 60.729 80.8787C60.4124 80.9499 60.3668 80.9569 60.1193 80.7078L59.5916 79.2137C58.3161 75.0662 57.1429 70.9749 55.757 66.8682C55.4313 65.9398 55.0488 64.9482 54.5661 64.0669C54.5297 63.9774 54.5259 63.9539 54.5259 63.9539C54.4252 63.2778 55.7586 62.9826 55.9606 63.5483C57.0909 66.573 58.3536 70.7939 59.3811 73.9058L60.1986 76.4055C60.4102 74.5385 60.264 72.6298 60.2372 70.893C60.2265 70.5132 60.5082 70.2089 60.8897 70.1044C61.1377 70.0433 61.3895 70.0053 61.5877 70.2383L65.0875 76.2935C64.5866 72.1728 64.0097 65.2032 63.7156 61.5287C63.8768 60.8848 64.8711 60.6641 65.0779 61.4194C65.2584 62.1555 65.1958 63.7621 65.2616 64.5148C65.6131 69.5151 66.3009 74.4185 66.8329 79.3685C66.6234 79.6862 66.7466 79.8817 66.2961 79.9975L66.1365 80.0216C65.5424 80.1105 65.492 79.6171 65.2022 79.0883L61.4152 72.3614C61.6193 75.5966 61.3397 77.4737 61.3906 79.683Z" fill="black"/>
<path d="M68.0684 61.4243C68.1584 60.9341 68.2693 60.8934 68.7493 60.8216C69.4114 60.7225 69.4569 61.0257 69.5587 61.7018C69.5694 61.7714 69.5919 62.0784 69.5984 62.125L71.3019 78.1744C71.4096 79.2078 70.1448 79.4923 70.0435 78.8162L68.0684 61.4243Z" fill="black"/>
<path d="M74.985 78.2897C74.962 78.2934 72.8861 66.3042 72.6488 64.7184C72.5824 64.2754 71.7734 60.7499 71.6845 60.31L71.6599 60.1467C71.632 59.9597 71.6218 59.89 71.7568 59.7025C71.8222 59.6693 72.0927 59.6045 72.1843 59.5911C72.5952 59.5295 72.7752 59.4786 72.9884 59.9715C73.3308 60.85 73.3227 61.4233 73.4824 62.3286C74.309 67.0675 75.0777 71.8868 76.0709 76.6488L76.2311 76.6247C77.1906 76.4811 78.0558 76.0177 79.0383 75.8704C79.4036 75.8152 79.8284 75.8474 79.8981 76.3134C79.9361 76.57 79.8311 76.8004 79.5183 76.8947L74.985 78.2897Z" fill="black"/>
<path d="M82.2268 77.2049C82.2037 77.2081 80.1273 65.2188 79.89 63.6336C79.8236 63.1906 79.0146 59.6645 78.9257 59.2252L78.9011 59.0618C78.8732 58.8749 78.863 58.8052 78.9985 58.6183C79.0634 58.5845 79.3344 58.5197 79.4255 58.5063C79.8369 58.4447 80.0164 58.3943 80.2302 58.8866C80.5719 59.7652 80.5644 60.3384 80.7236 61.2443C81.5502 65.9833 82.3194 70.8025 83.3127 75.564L83.4723 75.5404C84.4318 75.3963 85.2969 74.9334 86.2794 74.7861C86.6448 74.7309 87.0702 74.7631 87.1393 75.2291C87.1778 75.4858 87.0723 75.7161 86.7594 75.8104L82.2268 77.2049Z" fill="black"/>
<path d="M86.4121 58.6759C86.5021 58.1852 86.613 58.145 87.093 58.0732C87.7551 57.9736 87.8007 58.2773 87.9025 58.9534C87.9132 59.0236 87.9357 59.33 87.9421 59.3766L89.6462 75.4261C89.7539 76.4589 88.4891 76.7439 88.3873 76.0678L86.4121 58.6759Z" fill="black"/>
<path d="M90.9589 66.5762C90.5223 63.6619 89.9705 57.6421 93.7773 56.8573L93.9567 56.8069C94.8476 56.673 96.5796 57.0094 96.7124 57.8955C96.7264 57.9887 96.7178 58.0852 96.6894 58.2089C96.4007 59.396 95.3796 57.881 94.0264 57.8928L93.9117 57.91C91.8519 58.5046 91.5278 61.4853 92.1112 65.3784L92.1883 65.8916L92.6142 68.426C92.9399 69.9743 93.9749 73.6096 96.031 73.3016L96.1226 73.2882C97.6167 72.9689 97.3735 69.7873 97.2776 68.681C97.2503 67.8748 97.2428 67.0412 97.0671 66.1862C96.7783 64.7275 94.4807 66.6925 94.2267 65.4673C94.1464 64.931 94.7683 64.7189 95.1567 64.6605L95.5644 64.5759C96.1098 64.4703 98.0673 64.1296 98.2098 65.0853L98.2762 65.5278C98.3619 66.2543 98.5665 68.8696 98.5773 69.2494C98.6785 71.3318 98.6099 73.9884 96.1826 74.471L95.9994 74.4984C92.5044 75.0223 91.404 69.3946 91.0076 66.903L90.9589 66.5762Z" fill="black"/>
<path d="M99.4052 57.4685C99.3425 57.0485 99.6714 56.5942 100.083 56.5326L103.692 55.9915C103.83 55.9712 104.339 56.2524 104.379 56.3655C104.409 56.4088 104.412 56.4319 104.419 56.4785C104.489 56.9446 103.904 57.2467 103.538 57.3019L100.796 57.7128L102.07 65.4362L104.482 64.6931L104.596 64.676C105.67 64.5153 105.419 65.6494 104.527 65.9263L102.294 66.6185L103.137 72.7138C103.346 72.7063 104.123 72.5901 104.329 72.559C105.859 72.3297 106.899 71.6258 107.128 72.6881C107.292 73.4735 102.161 74.1469 102.094 73.7044L99.4052 57.4685Z" fill="black"/>
<path d="M109.274 71.2697C108.489 66.0239 107.878 60.7043 107.23 55.4377C107.114 54.3582 107.503 54.2998 108.417 54.1632L108.646 54.1289C110.747 53.8145 112.305 55.0113 112.612 57.063L112.651 57.3197C112.906 59.0222 112.768 61.0686 111.417 62.3436C111.549 62.4432 112.168 62.9939 112.285 63.1434C113.519 64.3654 113.767 67.7366 114.122 69.3282C114.143 69.468 114.441 70.5202 114.462 70.66L114.49 70.847C114.549 71.2429 114.191 71.3447 113.894 71.3891L113.871 71.3923C113.62 71.4298 113.323 71.4743 113.183 71.1614C113.045 70.3954 112.304 66.8591 112.141 66.0732C111.878 64.945 111.415 63.4166 110.022 63.6255L109.656 63.6802C109.642 63.8966 109.69 64.8432 109.721 65.0532C109.73 65.2664 110.391 70.4597 110.666 72.4445C110.732 72.8875 110.874 73.367 110.303 73.4527C110.051 73.4902 109.763 73.4382 109.569 73.2288L109.274 71.2697ZM109.704 61.9804C111.326 61.7372 111.485 58.5904 111.325 57.5179C111.16 56.4223 110.448 55.0986 109.146 55.2941C108.804 55.3455 108.606 55.5893 108.666 55.9857C108.992 58.0107 109.064 59.74 109.375 61.8148C109.404 62.0013 109.568 62.0007 109.704 61.9804Z" fill="black"/>
<path d="M116.841 67.6808C117.797 67.8239 117.236 70.0053 118.481 70.5105L118.618 70.4901C119.896 70.2983 119.993 68.448 119.85 67.4923C119.658 66.2098 119.361 64.848 118.654 63.7149C117.203 61.3578 114.581 59.6049 114.148 56.7137C113.953 55.4081 114.404 53.1233 115.981 52.8871C116.986 52.7365 118.776 53.3028 118.958 54.5156C119.024 54.9587 118.925 55.2351 118.468 55.3037C117.577 55.4371 117.642 53.9976 116.385 54.1856C115.22 54.3603 115.377 56.029 115.499 56.8449C115.852 59.1999 118.042 60.5644 119.363 62.3687C120.569 64.024 121.44 66.5633 121.158 68.4174C120.974 69.6849 120.193 71.494 118.8 71.7024C117.11 71.9558 116.263 69.8896 116.053 68.4908C115.992 68.0944 116.458 67.6187 116.841 67.6808Z" fill="black"/>
<path d="M40.9579 130.716C40.9579 131.601 40.1275 132.32 39.1022 132.32L33.7547 132.321C32.7293 132.321 31.8984 131.603 31.8984 130.718C31.8984 129.832 32.7293 129.113 33.7542 129.113L39.1017 129.112C40.127 129.112 40.9574 129.83 40.9579 130.716Z" fill="#FFED00"/>
<path d="M52.6063 130.713C52.6069 131.598 51.7754 132.317 50.7506 132.317L45.4031 132.318C44.3778 132.318 43.5474 131.6 43.5469 130.715C43.5469 129.829 44.3772 129.111 45.4026 129.111L50.7501 129.11C51.7754 129.11 52.6063 129.827 52.6063 130.713Z" fill="#FFED00"/>
<path d="M64.2549 130.711C64.2549 131.596 63.4234 132.315 62.3986 132.315L57.0506 132.316C56.0247 132.316 55.1943 131.598 55.1943 130.713C55.1943 129.827 56.0247 129.109 57.05 129.108L62.397 129.107C63.4224 129.107 64.2549 129.825 64.2549 130.711Z" fill="#FFED00"/>
<path d="M75.9017 130.709C75.9017 131.594 75.0703 132.313 74.046 132.313L68.699 132.314C67.6731 132.314 66.8428 131.596 66.8428 130.711C66.8428 129.825 67.6726 129.106 68.698 129.106L74.0449 129.105C75.0692 129.105 75.9017 129.823 75.9017 130.709Z" fill="#FFED00"/>
<path d="M87.5497 130.707C87.5497 131.592 86.7188 132.311 85.694 132.311L80.3465 132.312C79.3211 132.312 78.4902 131.594 78.4902 130.709C78.4902 129.823 79.3201 129.105 80.3454 129.105L85.6929 129.104C86.7177 129.103 87.5497 129.821 87.5497 130.707Z" fill="#FFED00"/>
<path d="M99.1987 130.705C99.1987 131.59 98.3672 132.308 97.343 132.308L91.9955 132.309C90.9701 132.31 90.1387 131.592 90.1387 130.707C90.1387 129.821 90.969 129.103 91.9944 129.102L97.3419 129.101C98.3662 129.101 99.1987 129.818 99.1987 130.705Z" fill="#FFED00"/>
<path d="M110.847 130.702C110.847 131.587 110.016 132.306 108.992 132.306L103.644 132.307C102.619 132.307 101.787 131.589 101.787 130.704C101.787 129.818 102.617 129.1 103.643 129.1L108.991 129.099C110.015 129.099 110.847 129.816 110.847 130.702Z" fill="#FFED00"/>
<path d="M122.495 130.7C122.495 131.585 121.664 132.303 120.639 132.303L115.292 132.305C114.267 132.305 113.435 131.587 113.435 130.702C113.435 129.816 114.265 129.098 115.291 129.098L120.638 129.097C121.663 129.096 122.495 129.814 122.495 130.7Z" fill="#FFED00"/>
<path d="M116.274 17L110.346 27.6436L119.753 35.0059" stroke="white" stroke-width="3.75" stroke-miterlimit="10" stroke-linecap="round"/>
<path d="M104.949 18.5789L99.0215 29.2235L108.428 36.5858" stroke="white" stroke-width="3.75" stroke-miterlimit="10" stroke-linecap="round"/>
<path d="M93.6236 20.1575L87.6943 30.8026L97.1025 38.165" stroke="white" stroke-width="3.75" stroke-miterlimit="10" stroke-linecap="round"/>
<path d="M82.2974 21.7378L76.3691 32.3819L85.7763 39.7448" stroke="white" stroke-width="3.75" stroke-miterlimit="10" stroke-linecap="round"/>
</svg>
