<?xml version="1.0" encoding="utf-8"?>
<!-- Generator: Adobe Illustrator 16.0.0, SVG Export Plug-In . SVG Version: 6.00 Build 0)  -->
<!DOCTYPE svg PUBLIC "-//W3C//DTD SVG 1.1//EN" "http://www.w3.org/Graphics/SVG/1.1/DTD/svg11.dtd">
<svg version="1.1" xmlns="http://www.w3.org/2000/svg" xmlns:xlink="http://www.w3.org/1999/xlink" x="0px" y="0px" width="110px"
	 height="100px" viewBox="0 0 280 270" enable-background="new 0 0 280 270" xml:space="preserve">
<g id="Laag_1">
	<polygon fill="#2EC4B6" points="258.282,142.91 32.684,175.808 45.676,138.595 22.767,107.801 248.365,74.904 235.364,112.061 	"/>
	<g>
		<path fill="#ffffff" stroke="#ffffff" stroke-miterlimit="10" d="M65.886,212.363c0-4.32,0.27-24.516,0.378-28.836
			c0.27-0.756,1.62-0.648,2.268-0.648c5.616,0,9.666,4.968,9.666,10.368c0,5.832-3.996,12.366-9.342,14.85
			c-0.054,0.864-0.27,5.076-0.27,5.94c-0.054,1.836-0.054,10.152,0,11.934c-0.324,0.54-1.134,0.702-1.674,0.702
			c-0.486,0-0.594-0.054-1.026-0.324V212.363z M68.748,204.479c0.378,0,0.864-0.108,1.134-0.378
			c3.132-2.862,4.968-6.156,4.968-10.476c0-2.808-1.998-7.884-5.724-7.884L68.748,204.479z"/>
		<path fill="#ffffff" stroke="#ffffff" stroke-miterlimit="10" d="M83.652,220.896c0-12.15,0.432-24.408,0.756-36.559
			c0.108-2.484,1.026-2.484,3.186-2.484h0.54c4.968,0,8.154,3.24,8.154,7.992v0.594c0,3.942-1.026,8.532-4.59,10.962
			c0.27,0.27,1.512,1.728,1.728,2.106c2.43,3.186,1.836,10.908,2.106,14.634c0,0.324,0.324,2.808,0.324,3.132v0.432
			c0,0.918-0.864,1.026-1.566,1.026h-0.054c-0.594,0-1.296,0-1.512-0.756c-0.054-1.782-0.54-10.044-0.648-11.88
			c-0.216-2.646-0.756-6.264-4.05-6.264h-0.864c-0.108,0.486-0.324,2.646-0.324,3.132c-0.054,0.486-0.324,12.474-0.378,17.064
			c0,1.026,0.162,2.16-1.188,2.16c-0.594,0-1.242-0.216-1.62-0.756V220.896z M87.864,199.997c3.834,0,5.292-7.074,5.292-9.558
			c0-2.538-1.188-5.778-4.266-5.778c-0.81,0-1.35,0.486-1.35,1.404c0.054,4.698-0.378,8.64-0.378,13.446
			C87.162,199.943,87.54,199.997,87.864,199.997z"/>
		<path fill="#ffffff" stroke="#ffffff" stroke-miterlimit="10" d="M111.732,182.069c9.666,1.08,8.262,24.084,7.722,31.267
			c-0.378,3.942-2.376,10.8-7.776,10.8c-9.559,0-9.99-16.309-9.99-22.626C101.688,194.651,102.174,182.069,111.732,182.069z
			 M104.767,201.293c0,15.822,2.916,20.142,6.75,20.142c5.292,0,5.346-13.716,5.346-17.118v-0.216
			c0-4.158-1.134-19.278-6.264-19.278c-4.05,0-5.778,9.018-5.778,11.718C104.767,198.269,104.767,199.781,104.767,201.293z"/>
		<path fill="#ffffff" stroke="#ffffff" stroke-miterlimit="10" d="M136.788,187.469c0,2.808-1.08,5.346-2.916,7.398
			c6.155,3.834,8.586,8.424,8.586,15.66c0,7.722-4.267,14.31-12.743,14.31c-0.378,0-1.458-0.054-1.89-0.81
			c-0.594-8.316-0.594-16.579-1.404-26.353l-1.08-12.852v-1.134C128.851,179.693,136.788,180.827,136.788,187.469z M129.282,193.787
			c2.754,0,4.59-3.132,4.59-6.102c0-3.078-2.537-4.158-5.399-2.808L129.282,193.787z M131.658,221.598
			c5.724,0,7.613-5.886,7.613-11.07c0-5.994-2.754-13.284-9.827-13.284c0,8.154,0.594,16.2,1.242,24.3
			C131.011,221.598,131.335,221.598,131.658,221.598z"/>
		<path fill="#ffffff" stroke="#ffffff" stroke-miterlimit="10" d="M148.506,225.162c-0.054,0-0.702-27.864-0.702-31.537
			c0-1.026-0.648-9.288-0.702-10.314v-0.378c0-0.432,0-0.594,0.378-0.972c0.162-0.054,0.811-0.108,1.026-0.108
			c0.972,0,1.404-0.054,1.728,1.134c0.486,2.106,0.271,3.402,0.324,5.508c0.271,11.016,0.378,22.194,1.026,33.318h0.378
			c2.268,0,4.428-0.756,6.75-0.756c0.864,0,1.836,0.216,1.836,1.296c0,0.594-0.324,1.08-1.08,1.188L148.506,225.162z"/>
		<path fill="#ffffff" stroke="#ffffff" stroke-miterlimit="10" d="M164.923,186.281c0-0.972,0.918-1.89,1.89-1.89h8.532
			c0.324,0,1.404,0.81,1.458,1.08c0.054,0.108,0.054,0.162,0.054,0.27c0,1.08-1.458,1.566-2.322,1.566h-6.479l0.27,17.928
			l5.832-0.864h0.271c2.538,0,1.565,2.484-0.594,2.808l-5.4,0.81l-0.162,14.094c0.486,0.054,2.322,0.054,2.808,0.054
			c3.618,0,6.265-1.242,6.427,1.242c0.107,1.836-11.988,1.62-11.988,0.594L164.923,186.281z"/>
		<path fill="#ffffff" stroke="#ffffff" stroke-miterlimit="10" d="M185.119,186.281c0-0.972,0.918-1.89,1.89-1.89h8.532
			c0.324,0,1.404,0.81,1.458,1.08c0.054,0.108,0.054,0.162,0.054,0.27c0,1.08-1.458,1.566-2.322,1.566h-6.479l0.27,17.928
			l5.832-0.864h0.271c2.538,0,1.565,2.484-0.594,2.808l-5.4,0.81l-0.162,14.094c0.486,0.054,2.322,0.054,2.808,0.054
			c3.618,0,6.265-1.242,6.427,1.242c0.107,1.836-11.988,1.62-11.988,0.594L185.119,186.281z"/>
		<path fill="#ffffff" stroke="#ffffff" stroke-miterlimit="10" d="M222.919,191.249l-5.832,14.364c-0.108,1.08-2.646,1.188-3.078,0.702
			c-0.054-0.054-0.324-0.486-0.378-0.648c-1.404-4.536-2.646-9.018-4.429-13.446c-0.918,10.152,0.217,20.521-1.079,30.619
			c-0.595,0.378-1.026,0.378-1.675,0.378c-1.134,0-1.08-0.27-1.08-1.296c0-1.728,0.486-2.862,0.378-36.937
			c0-1.62,2.484-2.862,3.133-1.08l6.588,18.037c1.566-1.782,6.264-16.957,7.452-18.955c0.54-1.08,1.728-0.918,3.078,0
			c0.054,0,0.324,17.82,0.378,25.435c0.054,4.806,0.324,9.828,0.324,14.688c0,0.972-0.648,1.836-1.675,1.836
			c-0.863,0-1.079-0.216-1.403-1.08C223.783,212.958,223.459,202.104,222.919,191.249z"/>
	</g>
	<g>
		<path fill="#ffffff" stroke="#ffffff" stroke-miterlimit="10" d="M50.28,69.25c-1.005-6.674-2.263-20.465,6.636-22.297l0.419-0.117
			c2.083-0.314,6.129,0.442,6.435,2.471c0.031,0.214,0.011,0.436-0.056,0.718c-0.683,2.724-3.061-0.741-6.223-0.701l-0.267,0.04
			c-4.816,1.38-5.59,8.213-4.247,17.131l0.177,1.175l0.983,5.805c0.753,3.545,3.152,11.867,7.959,11.143l0.213-0.032
			c3.492-0.744,2.941-8.033,2.724-10.567c-0.061-1.848-0.074-3.757-0.479-5.717c-0.666-3.34-6.047,1.184-6.633-1.623
			c-0.186-1.228,1.27-1.72,2.178-1.857l0.953-0.198c1.273-0.246,5.85-1.045,6.179,1.145l0.153,1.015
			c0.195,1.664,0.661,7.655,0.684,8.525c0.227,4.772,0.051,10.86-5.623,11.987l-0.427,0.064c-8.17,1.23-10.711-11.657-11.625-17.363
			L50.28,69.25z"/>
		<path fill="#ffffff" stroke="#ffffff" stroke-miterlimit="10" d="M70.062,48.305c-0.145-0.961,0.626-2.006,1.587-2.15l8.438-1.271
			c0.32-0.048,1.509,0.592,1.603,0.851c0.069,0.099,0.077,0.152,0.093,0.259c0.161,1.068-1.208,1.766-2.062,1.895l-6.408,0.965
			l2.937,17.688l5.639-1.723l0.268-0.04c2.51-0.378,1.918,2.223-0.17,2.865l-5.219,1.605l1.938,13.961
			c0.488-0.019,2.304-0.292,2.784-0.365c3.578-0.539,6.01-2.161,6.54,0.271c0.38,1.8-11.614,3.387-11.767,2.373L70.062,48.305z"/>
		<path fill="#ffffff" stroke="#ffffff" stroke-miterlimit="10" d="M87.896,45.62c-0.145-0.961,0.626-2.006,1.587-2.15l8.438-1.271
			c0.32-0.048,1.509,0.592,1.603,0.851c0.069,0.099,0.077,0.152,0.094,0.259c0.16,1.068-1.209,1.766-2.063,1.895l-6.408,0.965
			l2.937,17.688l5.639-1.723l0.268-0.04c2.51-0.378,1.918,2.223-0.169,2.865l-5.22,1.605l1.938,13.961
			c0.488-0.019,2.304-0.292,2.784-0.365c3.578-0.539,6.01-2.161,6.54,0.271c0.38,1.8-11.614,3.387-11.767,2.373L87.896,45.62z"/>
		<path fill="#ffffff" stroke="#ffffff" stroke-miterlimit="10" d="M106.324,42.517c-0.429-2.12,2.314-3.844,3.902-0.916l15.341,27.889
			c-0.302-2.357-1.853-15.558-2.319-20.84c-0.322-3.228-1.026-6.452-0.782-9.547c-0.089-0.587,0.499-0.676,1.3-0.796
			c1.29-0.14,1.404-0.103,1.527,1.081c0.677,5.577,0.712,11.251,1.334,16.837c0.36,3.113,2.053,17.985,2.52,21.083
			c-0.205,1.177-1.957,0.786-2.521-0.058c-0.703-1.041-1.291-2.044-17.17-30.617l4.562,32.843c0.241,1.602-2.506,1.852-2.675,0.73
			L106.324,42.517z"/>
	</g>
	<g>
		<path fill="#ffffff" stroke="#ffffff" stroke-miterlimit="10" d="M50.402,119.805c0.204-0.387,1.49-1.113,1.884-0.816
			c0.184,0.062,0.865,0.537,0.935,0.705l7.641,26.266c0.214-8.175,0.201-18.453,0.372-26.621c-0.222-1.48,0.343-1.787,1.11-1.902
			c0.64-0.096,1.079-0.072,1.495,0.666c-0.758,7.456-0.703,15.101-0.801,22.591l0.012,11.434c-0.182,0.828-0.602,0.936-1.198,1.025
			c-0.469,0.07-0.938,0.141-1.193-0.4C56.769,142.213,54.112,130.597,50.402,119.805z"/>
		<path fill="#ffffff" stroke="#ffffff" stroke-miterlimit="10" d="M72.79,148.756c-1.467-9.792-2.605-19.722-3.816-29.553
			c-0.215-2.015,0.51-2.124,2.215-2.379l0.428-0.064c3.923-0.587,6.83,1.647,7.404,5.477l0.071,0.479
			c0.476,3.178,0.22,6.998-2.302,9.378c0.246,0.185,1.403,1.213,1.619,1.493c2.304,2.28,2.768,8.574,3.43,11.544
			c0.039,0.262,0.596,2.225,0.635,2.486l0.052,0.348c0.111,0.74-0.559,0.929-1.113,1.012l-0.042,0.006
			c-0.47,0.07-1.023,0.154-1.285-0.43c-0.258-1.43-1.64-8.031-1.946-9.498c-0.49-2.107-1.354-4.959-3.955-4.57l-0.682,0.102
			c-0.027,0.405,0.063,2.172,0.122,2.563c0.016,0.398,1.25,10.092,1.762,13.797c0.124,0.827,0.389,1.722-0.678,1.882
			c-0.469,0.07-1.006-0.027-1.37-0.418L72.79,148.756z M73.593,131.415c3.028-0.453,3.326-6.327,3.025-8.329
			c-0.306-2.045-1.636-4.516-4.066-4.151c-0.64,0.096-1.008,0.551-0.896,1.291c0.609,3.78,0.744,7.008,1.324,10.881
			C73.032,131.455,73.337,131.454,73.593,131.415z"/>
		<path fill="#ffffff" stroke="#ffffff" stroke-miterlimit="10" d="M83.803,117.205c0.168-0.916,0.375-0.991,1.271-1.125
			c1.236-0.185,1.321,0.381,1.511,1.643c0.02,0.13,0.062,0.703,0.074,0.79l3.181,29.959c0.201,1.928-2.16,2.46-2.35,1.198
			L83.803,117.205z"/>
		<path fill="#ffffff" stroke="#ffffff" stroke-miterlimit="10" d="M93.373,146.162l0.214-0.032c1.719-0.168,0.831,1.478,2.281,1.26
			c4.052-0.607-0.507-26.667-0.551-29.286c-0.041-1.729-0.613-2.355,0.63-3.075l0.171-0.025c1.548-0.144,1.793,0.621,2.038,1.963
			l0.718,7.991c1.778,17.399,2.198,23.699-2.876,24.458l-0.342,0.051c-1.335,0.111-3.05-0.566-3.297-2.22
			C92.297,146.546,92.733,146.258,93.373,146.162z"/>
		<path fill="#ffffff" stroke="#ffffff" stroke-miterlimit="10" d="M114.963,144.752c0.006,0.044-0.03,0.094-0.023,0.137
			c-0.105,1.039-0.123,1.798-1.212,2.095c-0.591,0.133-0.676,0.146-1.138-0.319l-0.985-2.789
			c-2.381-7.742-4.571-15.379-7.158-23.045c-0.608-1.733-1.322-3.584-2.223-5.229c-0.068-0.167-0.075-0.211-0.075-0.211
			c-0.188-1.262,2.301-1.813,2.678-0.757c2.11,5.646,4.467,13.525,6.385,19.334l1.526,4.666c0.395-3.485,0.122-7.048,0.072-10.29
			c-0.02-0.709,0.506-1.277,1.218-1.472c0.463-0.114,0.933-0.185,1.303,0.25l6.533,11.303c-0.935-7.692-2.012-20.702-2.561-27.561
			c0.301-1.202,2.157-1.614,2.543-0.204c0.337,1.374,0.22,4.373,0.343,5.778c0.656,9.334,1.94,18.487,2.933,27.727
			c-0.391,0.593-0.161,0.958-1.002,1.174l-0.298,0.045c-1.109,0.166-1.203-0.755-1.744-1.742l-7.069-12.557
			C115.39,137.124,114.868,140.628,114.963,144.752z"/>
		<path fill="#ffffff" stroke="#ffffff" stroke-miterlimit="10" d="M127.427,110.669c0.168-0.915,0.375-0.991,1.271-1.125
			c1.236-0.185,1.321,0.381,1.511,1.643c0.02,0.13,0.062,0.703,0.074,0.79l3.18,29.959c0.201,1.929-2.16,2.46-2.349,1.198
			L127.427,110.669z"/>
		<path fill="#ffffff" stroke="#ffffff" stroke-miterlimit="10" d="M140.339,142.151c-0.043,0.007-3.918-22.373-4.361-25.333
			c-0.124-0.827-1.634-7.408-1.8-8.229l-0.046-0.305c-0.052-0.349-0.071-0.479,0.181-0.829c0.122-0.062,0.627-0.183,0.798-0.208
			c0.767-0.115,1.103-0.21,1.501,0.71c0.639,1.64,0.624,2.71,0.922,4.4c1.543,8.846,2.978,17.842,4.832,26.731l0.299-0.045
			c1.791-0.268,3.406-1.133,5.24-1.408c0.682-0.103,1.475-0.043,1.605,0.827c0.071,0.479-0.125,0.909-0.709,1.085L140.339,142.151z"
			/>
		<path fill="#ffffff" stroke="#ffffff" stroke-miterlimit="10" d="M153.857,140.126c-0.043,0.006-3.919-22.374-4.362-25.333
			c-0.124-0.827-1.634-7.409-1.8-8.229l-0.046-0.305c-0.052-0.349-0.071-0.479,0.182-0.828c0.121-0.063,0.627-0.184,0.797-0.209
			c0.768-0.115,1.103-0.209,1.502,0.71c0.638,1.64,0.624,2.71,0.921,4.401c1.543,8.846,2.979,17.842,4.833,26.73l0.298-0.044
			c1.791-0.269,3.406-1.133,5.24-1.408c0.682-0.103,1.476-0.043,1.605,0.827c0.072,0.479-0.125,0.909-0.709,1.085L153.857,140.126z"
			/>
		<path fill="#ffffff" stroke="#ffffff" stroke-miterlimit="10" d="M161.669,105.539c0.168-0.916,0.375-0.991,1.271-1.125
			c1.236-0.186,1.321,0.381,1.511,1.643c0.02,0.131,0.062,0.703,0.074,0.79l3.181,29.959c0.201,1.928-2.16,2.46-2.35,1.198
			L161.669,105.539z"/>
		<path fill="#ffffff" stroke="#ffffff" stroke-miterlimit="10" d="M170.157,120.286c-0.815-5.44-1.845-16.677,5.261-18.142l0.335-0.094
			c1.663-0.25,4.896,0.378,5.144,2.032c0.026,0.174,0.01,0.354-0.043,0.585c-0.539,2.216-2.445-0.612-4.971-0.59l-0.214,0.032
			c-3.845,1.11-4.45,6.674-3.361,13.941l0.144,0.958l0.795,4.731c0.608,2.89,2.54,9.676,6.378,9.101l0.171-0.025
			c2.789-0.596,2.335-6.535,2.156-8.6c-0.051-1.505-0.065-3.061-0.393-4.657c-0.539-2.723-4.828,0.945-5.302-1.342
			c-0.15-1.001,1.011-1.397,1.736-1.506l0.761-0.158c1.018-0.197,4.672-0.833,4.938,0.951l0.124,0.826
			c0.16,1.356,0.542,6.238,0.562,6.947c0.189,3.887,0.061,8.846-4.47,9.747l-0.342,0.051c-6.524,0.978-8.578-9.527-9.318-14.178
			L170.157,120.286z"/>
		<path fill="#ffffff" stroke="#ffffff" stroke-miterlimit="10" d="M185.922,103.285c-0.117-0.784,0.497-1.632,1.265-1.747l6.738-1.01
			c0.256-0.038,1.206,0.487,1.281,0.698c0.056,0.081,0.062,0.124,0.076,0.211c0.13,0.87-0.963,1.434-1.646,1.537l-5.117,0.767
			l2.378,14.417l4.501-1.387l0.214-0.032c2.004-0.3,1.536,1.817-0.13,2.334l-4.167,1.292l1.573,11.378
			c0.391-0.014,1.84-0.231,2.225-0.289c2.857-0.428,4.797-1.742,5.225,0.241c0.307,1.466-9.271,2.723-9.396,1.897L185.922,103.285z"
			/>
		<path fill="#ffffff" stroke="#ffffff" stroke-miterlimit="10" d="M204.345,129.047c-1.467-9.792-2.606-19.722-3.817-29.553
			c-0.215-2.015,0.511-2.124,2.216-2.379l0.427-0.064c3.923-0.587,6.831,1.647,7.404,5.477l0.072,0.479
			c0.476,3.178,0.22,6.998-2.302,9.378c0.246,0.186,1.402,1.214,1.619,1.493c2.304,2.281,2.767,8.574,3.43,11.545
			c0.039,0.261,0.595,2.225,0.634,2.486l0.053,0.349c0.11,0.739-0.559,0.929-1.113,1.012l-0.042,0.006
			c-0.47,0.07-1.024,0.153-1.286-0.431c-0.257-1.43-1.639-8.031-1.945-9.498c-0.49-2.106-1.354-4.959-3.955-4.569l-0.683,0.102
			c-0.026,0.404,0.063,2.171,0.122,2.563c0.017,0.398,1.251,10.092,1.763,13.797c0.124,0.827,0.389,1.722-0.678,1.882
			c-0.469,0.07-1.007-0.027-1.37-0.418L204.345,129.047z M205.147,111.707c3.028-0.454,3.325-6.328,3.025-8.33
			c-0.307-2.045-1.636-4.516-4.067-4.151c-0.639,0.096-1.007,0.551-0.896,1.291c0.609,3.78,0.744,7.008,1.324,10.881
			C204.586,111.746,204.892,111.745,205.147,111.707z"/>
		<path fill="#ffffff" stroke="#ffffff" stroke-miterlimit="10" d="M218.47,122.348c1.784,0.267,0.737,4.339,3.06,5.282l0.256-0.038
			c2.387-0.358,2.567-3.812,2.301-5.596c-0.359-2.394-0.914-4.936-2.234-7.051c-2.708-4.4-7.602-7.672-8.41-13.069
			c-0.365-2.437,0.478-6.702,3.421-7.143c1.876-0.281,5.218,0.776,5.557,3.04c0.124,0.827-0.061,1.343-0.914,1.471
			c-1.663,0.249-1.542-2.438-3.888-2.087c-2.175,0.326-1.883,3.441-1.654,4.964c0.658,4.396,4.746,6.943,7.213,10.311
			c2.251,3.09,3.877,7.83,3.349,11.291c-0.343,2.366-1.8,5.743-4.4,6.132c-3.156,0.473-4.737-3.384-5.128-5.995
			C216.885,123.12,217.755,122.232,218.47,122.348z"/>
	</g>
	<g>
		<path fill="#2EC4B6" d="M76.821,240.013c0,1.652-1.55,2.994-3.464,2.994l-9.982,0.002c-1.914,0.001-3.465-1.34-3.465-2.992l0,0
			c0-1.654,1.551-2.995,3.464-2.995l9.982-0.002C75.27,237.02,76.82,238.359,76.821,240.013L76.821,240.013z"/>
		<path fill="#2EC4B6" d="M98.564,240.009c0.001,1.652-1.551,2.993-3.464,2.994l-9.982,0.002c-1.914,0-3.464-1.341-3.465-2.993l0,0
			c0-1.654,1.55-2.994,3.464-2.994l9.982-0.002C97.013,237.015,98.564,238.355,98.564,240.009L98.564,240.009z"/>
		<path fill="#2EC4B6" d="M120.309,240.005c0,1.652-1.552,2.993-3.465,2.993L106.861,243c-1.915,0.001-3.465-1.34-3.465-2.992l0,0
			c0-1.654,1.55-2.994,3.464-2.995l9.981-0.002C118.755,237.011,120.309,238.351,120.309,240.005L120.309,240.005z"/>
		<path fill="#2EC4B6" d="M142.05,240c0,1.652-1.552,2.994-3.464,2.994l-9.981,0.002c-1.915,0-3.465-1.34-3.465-2.992l0,0
			c0-1.654,1.549-2.995,3.463-2.995l9.981-0.002C140.496,237.007,142.05,238.346,142.05,240L142.05,240z"/>
		<path fill="#2EC4B6" d="M163.793,239.997c0,1.652-1.551,2.993-3.464,2.994l-9.982,0.002c-1.914,0-3.465-1.341-3.465-2.993l0,0
			c0-1.654,1.549-2.994,3.463-2.994l9.982-0.002C162.24,237.002,163.793,238.342,163.793,239.997L163.793,239.997z"/>
		<path fill="#2EC4B6" d="M185.537,239.993c0,1.652-1.552,2.993-3.464,2.993l-9.982,0.002c-1.914,0.001-3.466-1.34-3.466-2.992l0,0
			c0-1.654,1.55-2.994,3.464-2.995l9.982-0.002C183.983,236.999,185.537,238.338,185.537,239.993L185.537,239.993z"/>
		<path fill="#2EC4B6" d="M207.28,239.988c0,1.652-1.552,2.993-3.463,2.994l-9.982,0.002c-1.915,0-3.467-1.34-3.467-2.992l0,0
			c0-1.654,1.55-2.995,3.465-2.995l9.982-0.002C205.727,236.995,207.28,238.333,207.28,239.988L207.28,239.988z"/>
		<path fill="#2EC4B6" d="M229.024,239.984c0,1.652-1.552,2.993-3.465,2.993l-9.981,0.002c-1.914,0.001-3.467-1.34-3.467-2.992l0,0
			c0-1.654,1.551-2.994,3.465-2.994l9.981-0.002C227.471,236.99,229.024,238.33,229.024,239.984L229.024,239.984z"/>
	</g>
	<g>
		<polyline fill="none" stroke="#ffffff" stroke-width="7" stroke-linecap="round" stroke-miterlimit="10" points="217.411,27.744
			206.345,47.612 223.906,61.355 		"/>
		<polyline fill="none" stroke="#ffffff" stroke-width="7" stroke-linecap="round" stroke-miterlimit="10" points="196.27,30.691
			185.206,50.561 202.764,64.304 		"/>
		<polyline fill="none" stroke="#ffffff" stroke-width="7" stroke-linecap="round" stroke-miterlimit="10" points="175.13,33.638
			164.062,53.509 181.624,67.252 		"/>
		<polyline fill="none" stroke="#ffffff" stroke-width="7" stroke-linecap="round" stroke-miterlimit="10" points="153.988,36.588
			142.922,56.457 160.482,70.201 		"/>
	</g>
</g>
<g id="Laag_2">
</g>
<g id="Laag_3">
</g>
</svg>
