<svg width="150" height="140" viewBox="0 0 150 140" fill="none" xmlns="http://www.w3.org/2000/svg">
<path d="M136.332 74.1015L19.355 91.1597L26.0916 71.8641L14.2129 55.8968L131.19 38.8391L124.448 58.1057L136.332 74.1015Z" fill="#FFED00"/>
<path d="M36.5713 110.114C36.5713 107.874 36.7113 97.4022 36.7673 95.1622C36.9073 94.7702 37.6073 94.8263 37.9433 94.8263C40.8553 94.8263 42.9553 97.4022 42.9553 100.202C42.9553 103.226 40.8833 106.614 38.1113 107.902C38.0833 108.35 37.9713 110.534 37.9713 110.982C37.9433 111.934 37.9433 116.246 37.9713 117.17C37.8033 117.45 37.3833 117.534 37.1033 117.534C36.8513 117.534 36.7953 117.506 36.5713 117.366V110.114ZM38.0553 106.026C38.2513 106.026 38.5033 105.97 38.6433 105.83C40.2673 104.346 41.2193 102.638 41.2193 100.398C41.2193 98.9423 40.1833 96.3103 38.2513 96.3103L38.0553 106.026Z" fill="black" stroke="black" stroke-width="0.518519" stroke-miterlimit="10"/>
<path d="M45.7832 114.539C45.7832 108.239 46.0072 101.883 46.1752 95.5822C46.2312 94.2942 46.7072 94.2942 47.8272 94.2942H48.1072C50.6832 94.2942 52.3352 95.9742 52.3352 98.4382V98.7462C52.3352 100.79 51.8032 103.17 49.9552 104.43C50.0952 104.57 50.7392 105.326 50.8512 105.522C52.1112 107.174 51.8032 111.178 51.9432 113.11C51.9432 113.278 52.1112 114.566 52.1112 114.734V114.958C52.1112 115.434 51.6632 115.49 51.2992 115.49H51.2712C50.9632 115.49 50.5992 115.49 50.4872 115.098C50.4592 114.174 50.2072 109.89 50.1512 108.938C50.0392 107.566 49.7592 105.69 48.0512 105.69H47.6032C47.5472 105.942 47.4352 107.062 47.4352 107.314C47.4072 107.566 47.2672 113.782 47.2392 116.162C47.2392 116.694 47.3232 117.282 46.6232 117.282C46.3152 117.282 45.9792 117.17 45.7832 116.89V114.539V114.539ZM47.9672 103.702C49.9552 103.702 50.7112 100.034 50.7112 98.7462C50.7112 97.4302 50.0952 95.7502 48.4992 95.7502C48.0792 95.7502 47.7992 96.0022 47.7992 96.4782C47.8272 98.9142 47.6032 100.958 47.6032 103.45C47.6032 103.674 47.7992 103.702 47.9672 103.702Z" fill="black" stroke="black" stroke-width="0.518519" stroke-miterlimit="10"/>
<path d="M60.3437 94.4062C65.3557 94.9663 64.6277 106.894 64.3477 110.619C64.1517 112.663 63.1157 116.219 60.3157 116.219C55.3592 116.219 55.1357 107.762 55.1357 104.487C55.1357 100.93 55.3877 94.4062 60.3437 94.4062ZM56.7323 104.374C56.7323 112.578 58.2443 114.818 60.2323 114.818C62.9763 114.818 63.0043 107.706 63.0043 105.942V105.83C63.0043 103.674 62.4163 95.8342 59.7563 95.8342C57.6563 95.8342 56.7603 100.51 56.7603 101.91C56.7323 102.806 56.7323 103.59 56.7323 104.374Z" fill="black" stroke="black" stroke-width="0.518519" stroke-miterlimit="10"/>
<path d="M73.3349 97.2061C73.3349 98.6621 72.7749 99.9781 71.8229 101.042C75.0144 103.03 76.2749 105.41 76.2749 109.162C76.2749 113.166 74.0624 116.582 69.6674 116.582C69.4714 116.582 68.9114 116.554 68.6874 116.162C68.3794 111.85 68.3794 107.566 67.9594 102.498L67.3994 95.8336V95.2456C69.2194 93.1741 73.3349 93.7621 73.3349 97.2061ZM69.4429 100.482C70.8709 100.482 71.8229 98.8581 71.8229 97.3181C71.8229 95.7221 70.5074 95.1621 69.0234 95.8621L69.4429 100.482ZM70.6749 114.903C73.6429 114.903 74.6224 111.851 74.6224 109.163C74.6224 106.055 73.1944 102.275 69.5269 102.275C69.5269 106.503 69.8349 110.675 70.1709 114.875C70.3394 114.903 70.5074 114.903 70.6749 114.903Z" fill="black" stroke="black" stroke-width="0.518519" stroke-miterlimit="10"/>
<path d="M79.4116 116.751C79.3836 116.751 79.0476 102.303 79.0476 100.398C79.0476 99.8661 78.7116 95.5821 78.6836 95.0501V94.8541C78.6836 94.6301 78.6836 94.5461 78.8796 94.3501C78.9636 94.3221 79.3001 94.2941 79.4116 94.2941C79.9156 94.2941 80.1396 94.2661 80.3076 94.8821C80.5596 95.9741 80.4481 96.6461 80.4756 97.7381C80.6161 103.45 80.6716 109.246 81.0076 115.014H81.2036C82.3796 115.014 83.4996 114.622 84.7036 114.622C85.1516 114.622 85.6556 114.734 85.6556 115.294C85.6556 115.602 85.4876 115.854 85.0956 115.91L79.4116 116.751Z" fill="black" stroke="black" stroke-width="0.518519" stroke-miterlimit="10"/>
<path d="M87.9238 96.5901C87.9238 96.0861 88.3998 95.6101 88.9038 95.6101H93.3278C93.4958 95.6101 94.0558 96.0301 94.0838 96.1701C94.1118 96.2261 94.1118 96.2541 94.1118 96.3101C94.1118 96.8701 93.3558 97.1221 92.9078 97.1221H89.5483L89.6883 106.418L92.7123 105.97H92.8529C94.1689 105.97 93.6643 107.258 92.5449 107.426L89.7449 107.846L89.6609 115.154C89.9129 115.182 90.8649 115.182 91.1169 115.182C92.9929 115.182 94.3654 114.538 94.4494 115.826C94.5049 116.778 88.2334 116.666 88.2334 116.134L87.9238 96.5901Z" fill="black" stroke="black" stroke-width="0.518519" stroke-miterlimit="10"/>
<path d="M98.3955 96.5901C98.3955 96.0861 98.8715 95.6101 99.3755 95.6101H103.8C103.968 95.6101 104.528 96.0301 104.556 96.1701C104.584 96.2261 104.584 96.2541 104.584 96.3101C104.584 96.8701 103.828 97.1221 103.38 97.1221H100.02L100.16 106.418L103.184 105.97H103.325C104.641 105.97 104.136 107.258 103.017 107.426L100.217 107.846L100.133 115.154C100.385 115.182 101.337 115.182 101.589 115.182C103.465 115.182 104.837 114.538 104.921 115.826C104.977 116.778 98.7051 116.666 98.7051 116.134L98.3955 96.5901Z" fill="black" stroke="black" stroke-width="0.518519" stroke-miterlimit="10"/>
<path d="M117.996 99.1661L114.972 106.614C114.916 107.174 113.6 107.23 113.376 106.978C113.348 106.95 113.208 106.726 113.18 106.642C112.452 104.29 111.808 101.966 110.884 99.6701C110.408 104.934 110.996 110.311 110.324 115.547C110.016 115.743 109.792 115.743 109.456 115.743C108.868 115.743 108.896 115.603 108.896 115.071C108.896 114.175 109.148 113.587 109.092 95.9181C109.092 95.0781 110.38 94.4341 110.716 95.3581L114.132 104.711C114.944 103.787 117.38 95.9181 117.996 94.8821C118.276 94.3221 118.892 94.4061 119.592 94.8821C119.62 94.8821 119.76 104.122 119.788 108.071C119.816 110.563 119.956 113.167 119.956 115.687C119.956 116.191 119.62 116.639 119.088 116.639C118.64 116.639 118.528 116.527 118.36 116.079C118.444 110.423 118.276 104.795 117.996 99.1661Z" fill="black" stroke="black" stroke-width="0.518519" stroke-miterlimit="10"/>
<path d="M28.4792 35.9076C27.9581 32.447 27.3058 25.2961 31.9201 24.3462L32.1374 24.2855C33.2174 24.1227 35.3154 24.5147 35.474 25.5668C35.4901 25.6777 35.4797 25.7928 35.445 25.9391C35.0908 27.3515 33.8578 25.5548 32.2183 25.5756L32.0798 25.5963C29.5826 26.3119 29.1813 29.8549 29.8777 34.4791L29.9694 35.0883L30.4791 38.0983C30.8696 39.9365 32.1135 44.2516 34.606 43.8762L34.7165 43.8596C36.5271 43.4738 36.2414 39.6943 36.1289 38.3804C36.0973 37.4222 36.0905 36.4323 35.8805 35.416C35.5352 33.6842 32.7451 36.03 32.4412 34.5745C32.3448 33.9377 33.0997 33.6826 33.5705 33.6116L34.0647 33.5089C34.7248 33.3814 37.098 32.9671 37.2686 34.1026L37.348 34.6289C37.4491 35.4917 37.6907 38.5982 37.7026 39.0493C37.8203 41.5237 37.7291 44.6804 34.787 45.2648L34.5656 45.298C30.3293 45.9357 29.0117 39.2536 28.5378 36.2949L28.4792 35.9076Z" fill="black" stroke="black" stroke-width="0.518519" stroke-miterlimit="10"/>
<path d="M38.7367 25.0472C38.6615 24.5489 39.0613 24.007 39.5596 23.9323L43.9348 23.2733C44.1007 23.2484 44.7173 23.5803 44.766 23.7146C44.8018 23.7659 44.8059 23.7934 44.8142 23.8489C44.8977 24.4026 44.1878 24.7646 43.745 24.8314L40.4224 25.3318L41.9453 34.5034L44.8692 33.61L45.0081 33.5892C46.3096 33.3932 46.0027 34.7419 44.92 35.0748L42.2138 35.907L43.2187 43.146C43.4718 43.1362 44.4134 42.9946 44.6623 42.9568C46.5176 42.6773 47.7786 41.8363 48.0534 43.0973C48.2504 44.0306 42.0313 44.8535 41.952 44.3277L38.7367 25.0472Z" fill="black" stroke="black" stroke-width="0.518519" stroke-miterlimit="10"/>
<path d="M47.9837 23.6548C47.9085 23.1565 48.3083 22.6147 48.8066 22.54L53.1819 21.881C53.3478 21.8561 53.9643 22.1879 54.0131 22.3222C54.0488 22.3736 54.053 22.401 54.0618 22.4565C54.1448 23.0103 53.4349 23.3722 52.9921 23.4391L49.6694 23.9395L51.1923 33.111L54.1162 32.2176L54.2552 32.1969C55.5567 32.0009 55.2497 33.3496 54.1676 33.6824L51.4609 34.5147L52.4658 41.7537C52.7188 41.7439 53.6605 41.6023 53.9094 41.5644C55.7646 41.285 57.0257 40.4439 57.3005 41.705C57.4975 42.6383 51.2784 43.4612 51.1991 42.9354L47.9837 23.6548Z" fill="black" stroke="black" stroke-width="0.518519" stroke-miterlimit="10"/>
<path d="M57.5389 22.0459C57.3165 20.9467 58.7388 20.0527 59.5622 21.571L67.5168 36.0319C67.3602 34.8098 66.556 27.9648 66.3143 25.226C66.1474 23.5522 65.7823 21.8805 65.9089 20.2757C65.8627 19.9713 66.1676 19.9252 66.5829 19.863C67.2518 19.7904 67.3109 19.8095 67.3747 20.4235C67.7258 23.3152 67.7439 26.2573 68.0664 29.1538C68.2531 30.7679 69.1309 38.4793 69.3731 40.0857C69.2668 40.696 68.3583 40.4932 68.0659 40.0556C67.7014 39.5158 67.3965 38.9958 59.1629 24.1801L61.5284 41.2098C61.6534 42.0405 60.229 42.1701 60.1414 41.5884L57.5389 22.0459Z" fill="black" stroke="black" stroke-width="0.518519" stroke-miterlimit="10"/>
<path d="M28.542 62.121C28.6478 61.9204 29.3146 61.5439 29.5189 61.6979C29.6143 61.7301 29.9674 61.9764 30.0037 62.0635L33.9657 75.6829C34.0767 71.444 34.0699 66.1147 34.1586 61.8794C34.0435 61.112 34.3364 60.9528 34.7341 60.8932C35.066 60.8434 35.2936 60.8558 35.5093 61.2385C35.1163 65.1046 35.1448 69.0687 35.094 72.9524L35.1002 78.8811C35.0058 79.3104 34.7881 79.3664 34.479 79.4126C34.2358 79.4489 33.9927 79.4857 33.8604 79.2052C31.8434 73.74 30.4657 67.7169 28.542 62.121Z" fill="black" stroke="black" stroke-width="0.518519" stroke-miterlimit="10"/>
<path d="M40.1501 77.1327C39.3894 72.0553 38.7994 66.9064 38.1714 61.8089C38.06 60.7641 38.4359 60.7075 39.32 60.5753L39.5419 60.5421C41.576 60.2378 43.0834 61.3961 43.381 63.3821L43.4178 63.6304C43.6646 65.2783 43.5319 67.259 42.2242 68.4931C42.3517 68.589 42.9517 69.1221 43.0637 69.2673C44.2583 70.4495 44.4989 73.713 44.8422 75.253C44.8624 75.3889 45.1512 76.4067 45.1714 76.5421L45.1984 76.7225C45.256 77.1062 44.9085 77.2042 44.6213 77.2472L44.5995 77.2504C44.3558 77.2867 44.0691 77.3302 43.9332 77.0274C43.7994 76.2859 43.0828 72.8632 42.9242 72.1025C42.6701 71.01 42.2221 69.5312 40.8734 69.7329L40.5198 69.7858C40.5058 69.9958 40.5525 70.912 40.5831 71.1147C40.5914 71.3211 41.2312 76.3476 41.4967 78.2687C41.561 78.6975 41.6984 79.1616 41.1451 79.2446C40.902 79.2809 40.6235 79.2306 40.4348 79.0278L40.1501 77.1327ZM40.5665 68.141C42.1365 67.9061 42.2911 64.8604 42.135 63.8223C41.9763 62.7619 41.2867 61.4807 40.0267 61.6699C39.6948 61.7197 39.504 61.9556 39.5621 62.3393C39.8779 64.2993 39.9479 65.9731 40.2486 67.9813C40.2756 68.1618 40.4337 68.1612 40.5665 68.141Z" fill="black" stroke="black" stroke-width="0.518519" stroke-miterlimit="10"/>
<path d="M45.8613 60.7727C45.9484 60.2978 46.0558 60.2589 46.5204 60.1894C47.1613 60.0935 47.2053 60.387 47.3038 61.0413C47.3142 61.1087 47.336 61.4059 47.3422 61.451L48.9916 76.9853C49.0958 77.985 47.8716 78.2608 47.7731 77.6064L45.8613 60.7727Z" fill="black" stroke="black" stroke-width="0.518519" stroke-miterlimit="10"/>
<path d="M50.8237 75.7875L50.9347 75.7709C51.826 75.6838 51.3656 76.5373 52.1174 76.4243C54.2185 76.1095 51.8546 62.5969 51.8317 61.2389C51.8105 60.3424 51.5139 60.0178 52.1584 59.6445L52.2471 59.6315C53.0497 59.5569 53.1768 59.9535 53.3038 60.6494L53.6761 64.7929C54.598 73.8146 54.8158 77.0812 52.1849 77.4748L52.0075 77.5012C51.3153 77.5588 50.426 77.2077 50.298 76.3501C50.2658 75.9866 50.4919 75.8373 50.8237 75.7875Z" fill="black" stroke="black" stroke-width="0.518519" stroke-miterlimit="10"/>
<path d="M62.0177 75.0565C62.0208 75.0793 62.0022 75.1053 62.0058 75.1276C61.9513 75.6663 61.942 76.0599 61.3773 76.2139C61.0709 76.2828 61.0268 76.2896 60.7873 76.0484L60.2765 74.6023C59.0419 70.5879 57.9064 66.628 56.565 62.653C56.2497 61.7545 55.8795 60.7947 55.4123 59.9417C55.377 59.8551 55.3734 59.8323 55.3734 59.8323C55.2759 59.1779 56.5665 58.8922 56.762 59.4398C57.8561 62.3673 59.0782 66.4527 60.0727 69.4648L60.864 71.8842C61.0688 70.0772 60.9273 68.2297 60.9013 66.5487C60.891 66.181 61.1637 65.8865 61.5329 65.7854C61.773 65.7263 62.0167 65.6895 62.2085 65.915L65.596 71.7759C65.1112 67.7874 64.5527 61.0415 64.2681 57.485C64.4242 56.8617 65.3865 56.6481 65.5867 57.3792C65.7614 58.0916 65.7007 59.6467 65.7645 60.3752C66.1047 65.215 66.7704 69.961 67.2853 74.7522C67.0826 75.0596 67.2019 75.2489 66.7658 75.3609L66.6113 75.3842C66.0362 75.4703 65.9875 74.9927 65.707 74.481L62.0416 67.9699C62.2391 71.1013 61.9684 72.9182 62.0177 75.0565Z" fill="black" stroke="black" stroke-width="0.518519" stroke-miterlimit="10"/>
<path d="M68.4805 57.3838C68.5676 56.9094 68.6749 56.87 69.1395 56.8005C69.7804 56.7046 69.8245 56.998 69.923 57.6524C69.9334 57.7198 69.9551 58.0169 69.9614 58.062L71.6102 73.5963C71.7145 74.5966 70.4902 74.8719 70.3922 74.2175L68.4805 57.3838Z" fill="black" stroke="black" stroke-width="0.518519" stroke-miterlimit="10"/>
<path d="M75.1756 73.7078C75.1533 73.7114 73.144 62.107 72.9143 60.5722C72.85 60.1433 72.0671 56.731 71.981 56.3053L71.9572 56.1471C71.9302 55.9662 71.9203 55.8988 72.051 55.7173C72.1143 55.6851 72.3761 55.6224 72.4648 55.6094C72.8625 55.5498 73.0367 55.5005 73.2431 55.9776C73.5744 56.8279 73.5666 57.3828 73.7212 58.259C74.5212 62.8459 75.2653 67.5105 76.2266 72.1196L76.3817 72.0962C77.3103 71.9573 78.1478 71.5087 79.0987 71.3662C79.4523 71.3127 79.8635 71.3439 79.9309 71.795C79.9677 72.0433 79.8661 72.2663 79.5633 72.3576L75.1756 73.7078Z" fill="black" stroke="black" stroke-width="0.518519" stroke-miterlimit="10"/>
<path d="M82.1849 72.6579C82.1626 72.661 80.1528 61.0565 79.9231 59.5222C79.8588 59.0934 79.0759 55.6805 78.9898 55.2554L78.9659 55.0972C78.939 54.9162 78.9291 54.8488 79.0603 54.6679C79.123 54.6352 79.3854 54.5725 79.4736 54.5595C79.8718 54.4999 80.0455 54.4511 80.2524 54.9277C80.5832 55.778 80.5759 56.3328 80.7299 57.2097C81.53 61.7965 82.2746 66.4611 83.2359 71.0697L83.3905 71.0468C84.3191 70.9074 85.1565 70.4594 86.1075 70.3168C86.4611 70.2634 86.8728 70.2945 86.9397 70.7456C86.977 70.994 86.8749 71.2169 86.5721 71.3082L82.1849 72.6579Z" fill="black" stroke="black" stroke-width="0.518519" stroke-miterlimit="10"/>
<path d="M86.2363 54.7238C86.3234 54.2489 86.4308 54.21 86.8954 54.1405C87.5363 54.044 87.5803 54.338 87.6788 54.9924C87.6892 55.0603 87.711 55.3569 87.7172 55.402L89.3666 70.9363C89.4708 71.936 88.2466 72.2119 88.1481 71.5575L86.2363 54.7238Z" fill="black" stroke="black" stroke-width="0.518519" stroke-miterlimit="10"/>
<path d="M90.6374 62.3704C90.2148 59.5496 89.6807 53.723 93.3653 52.9634L93.539 52.9147C94.4013 52.785 96.0777 53.1107 96.2063 53.9683C96.2198 54.0585 96.2115 54.1519 96.184 54.2716C95.9045 55.4207 94.9162 53.9543 93.6064 53.9657L93.4955 53.9823C91.5018 54.5579 91.1881 57.4429 91.7527 61.211L91.8274 61.7077L92.2396 64.1608C92.5549 65.6593 93.5567 69.178 95.5467 68.8799L95.6354 68.8669C97.0816 68.5579 96.8461 65.4784 96.7533 64.4076C96.7269 63.6273 96.7196 62.8204 96.5496 61.9929C96.2701 60.581 94.0462 62.4829 93.8004 61.297C93.7226 60.778 94.3246 60.5727 94.7005 60.5162L95.0951 60.4342C95.623 60.3321 97.5176 60.0023 97.6556 60.9273L97.7198 61.3556C97.8028 62.0587 98.0009 64.5902 98.0113 64.9578C98.1093 66.9733 98.0429 69.5446 95.6935 70.0118L95.5161 70.0382C92.1333 70.5453 91.0683 65.0983 90.6846 62.6867L90.6374 62.3704Z" fill="black" stroke="black" stroke-width="0.518519" stroke-miterlimit="10"/>
<path d="M98.8112 53.5551C98.7505 53.1486 99.0689 52.7089 99.4671 52.6492L102.961 52.1255C103.094 52.1058 103.586 52.378 103.625 52.4875C103.654 52.5295 103.657 52.5517 103.664 52.5969C103.732 53.048 103.165 53.3404 102.811 53.3938L100.158 53.7915L101.391 61.267L103.725 60.5478L103.836 60.5312C104.875 60.3757 104.632 61.4734 103.768 61.7415L101.608 62.4114L102.423 68.3111C102.626 68.3038 103.377 68.1913 103.577 68.1612C105.058 67.9393 106.064 67.258 106.286 68.2862C106.445 69.0463 101.479 69.6981 101.414 69.2698L98.8112 53.5551Z" fill="black" stroke="black" stroke-width="0.518519" stroke-miterlimit="10"/>
<path d="M108.364 66.9132C107.604 61.8358 107.013 56.687 106.385 51.5894C106.274 50.5446 106.65 50.4881 107.534 50.3558L107.756 50.3227C109.79 50.0183 111.298 51.1767 111.595 53.1626L111.632 53.411C111.879 55.0588 111.746 57.0395 110.439 58.2736C110.566 58.3701 111.166 58.9031 111.278 59.0478C112.473 60.2305 112.713 63.4935 113.057 65.0341C113.077 65.1694 113.365 66.1878 113.385 66.3231L113.413 66.5041C113.47 66.8872 113.123 66.9858 112.836 67.0288L112.814 67.0319C112.57 67.0682 112.283 67.1112 112.147 66.8084C112.014 66.067 111.297 62.6442 111.139 61.8835C110.884 60.7915 110.436 59.3122 109.088 59.5144L108.734 59.5673C108.72 59.7768 108.766 60.693 108.797 60.8963C108.806 61.1027 109.446 66.1292 109.711 68.0503C109.775 68.4791 109.913 68.9432 109.36 69.0261C109.116 69.0624 108.837 69.0121 108.649 68.8094L108.364 66.9132ZM108.78 57.9221C110.35 57.6867 110.504 54.6409 110.349 53.6028C110.19 52.5424 109.501 51.2612 108.24 51.4504C107.909 51.5002 107.718 51.7361 107.775 52.1198C108.091 54.0798 108.161 55.7536 108.462 57.7618C108.489 57.9423 108.648 57.9418 108.78 57.9221Z" fill="black" stroke="black" stroke-width="0.518519" stroke-miterlimit="10"/>
<path d="M115.688 63.4396C116.613 63.578 116.07 65.6894 117.275 66.1784L117.407 66.1587C118.645 65.9731 118.738 64.1821 118.601 63.2571C118.414 62.0157 118.127 60.6976 117.442 59.601C116.038 57.3195 113.5 55.6229 113.081 52.8245C112.892 51.5608 113.329 49.3494 114.855 49.1207C115.828 48.975 117.561 49.5231 117.737 50.697C117.801 51.1258 117.705 51.3934 117.263 51.4597C116.4 51.5888 116.463 50.1956 115.247 50.3776C114.119 50.5466 114.27 52.1618 114.389 52.9515C114.73 55.2309 116.85 56.5516 118.129 58.2979C119.296 59.9002 120.14 62.3579 119.866 64.1525C119.688 65.3794 118.932 67.1304 117.584 67.3321C115.948 67.5773 115.128 65.5774 114.925 64.2236C114.866 63.8399 115.317 63.3794 115.688 63.4396Z" fill="black" stroke="black" stroke-width="0.518519" stroke-miterlimit="10"/>
<path d="M42.2413 124.451C42.2413 125.308 41.4376 126.004 40.4452 126.004L35.2693 126.005C34.2769 126.005 33.4727 125.31 33.4727 124.453C33.4727 123.596 34.2769 122.9 35.2688 122.9L40.4447 122.899C41.4371 122.899 42.2408 123.594 42.2413 124.451Z" fill="#FFED00"/>
<path d="M53.5157 124.449C53.5163 125.306 52.7115 126.001 51.7196 126.002L46.5437 126.003C45.5513 126.003 44.7476 125.307 44.7471 124.451C44.7471 123.593 45.5508 122.898 46.5432 122.898L51.7191 122.897C52.7115 122.897 53.5157 123.592 53.5157 124.449Z" fill="#FFED00"/>
<path d="M64.7902 124.447C64.7902 125.304 63.9855 125.999 62.9935 125.999L57.8172 126C56.8242 126 56.0205 125.305 56.0205 124.449C56.0205 123.591 56.8242 122.896 57.8167 122.896L62.992 122.895C63.9844 122.895 64.7902 123.589 64.7902 124.447Z" fill="#FFED00"/>
<path d="M76.064 124.445C76.064 125.301 75.2593 125.997 74.2679 125.997L69.0926 125.998C68.0996 125.998 67.2959 125.303 67.2959 124.447C67.2959 123.589 68.0991 122.894 69.0915 122.894L74.2669 122.893C75.2583 122.893 76.064 123.587 76.064 124.445Z" fill="#FFED00"/>
<path d="M87.338 124.443C87.338 125.3 86.5338 125.995 85.5418 125.995L80.366 125.997C79.3736 125.997 78.5693 125.301 78.5693 124.445C78.5693 123.587 79.3725 122.892 80.365 122.892L85.5408 122.891C86.5327 122.89 87.338 123.585 87.338 124.443Z" fill="#FFED00"/>
<path d="M98.6129 124.441C98.6129 125.297 97.8082 125.993 96.8168 125.993L91.6409 125.994C90.6485 125.994 89.8438 125.299 89.8438 124.442C89.8438 123.585 90.6475 122.89 91.6399 122.889L96.8157 122.888C97.8072 122.888 98.6129 123.583 98.6129 124.441Z" fill="#FFED00"/>
<path d="M109.886 124.438C109.886 125.295 109.082 125.99 108.091 125.991L102.915 125.992C101.922 125.992 101.117 125.297 101.117 124.44C101.117 123.583 101.921 122.887 102.914 122.887L108.09 122.886C109.081 122.886 109.886 123.58 109.886 124.438Z" fill="#FFED00"/>
<path d="M121.161 124.436C121.161 125.293 120.357 125.988 119.365 125.988L114.189 125.989C113.197 125.99 112.392 125.294 112.392 124.438C112.392 123.58 113.196 122.885 114.188 122.885L119.364 122.884C120.356 122.884 121.161 123.579 121.161 124.436Z" fill="#FFED00"/>
<path d="M115.139 14.3857L109.401 24.6877L118.507 31.8137" stroke="black" stroke-width="3.62963" stroke-miterlimit="10" stroke-linecap="round"/>
<path d="M104.177 15.9138L98.4404 26.2168L107.545 33.3428" stroke="black" stroke-width="3.62963" stroke-miterlimit="10" stroke-linecap="round"/>
<path d="M93.2165 17.4419L87.4775 27.7454L96.5838 34.8714" stroke="black" stroke-width="3.62963" stroke-miterlimit="10" stroke-linecap="round"/>
<path d="M82.2536 18.9714L76.5156 29.2739L85.6208 36.4004" stroke="black" stroke-width="3.62963" stroke-miterlimit="10" stroke-linecap="round"/>
</svg>
